<svg xmlns="http://www.w3.org/2000/svg" width="65.1" height="73.996" viewBox="0 0 65.1 73.996">
  <g id="Group_18" data-name="Group 18" transform="translate(-428.822 -291.59)">
    <path id="Path_31" data-name="Path 31" d="M481.356,338.213l-9.99-9.992-9.994,9.992-9.994-9.992-9.99,9.992-12.566-12.566L431.472,323l9.917,9.917,9.99-9.992,9.994,9.992,9.994-9.992,9.99,9.992L491.273,323l2.649,2.649Z" transform="translate(0 27.372)" fill="#343741"/>
    <rect id="Rectangle_38" data-name="Rectangle 38" width="5.512" height="5.512" transform="translate(457.475 295.486) rotate(-44.987)" fill="#343741"/>
    <rect id="Rectangle_39" data-name="Rectangle 39" width="3.747" height="28.728" transform="translate(459.498 319.22)" fill="#343741"/>
    <path id="Path_32" data-name="Path 32" d="M458.461,331.919l-26.307-26.307,2.649-2.649,23.658,23.658,23.658-23.658,2.649,2.649Z" transform="translate(2.911 9.935)" fill="#343741"/>
    <path id="Path_33" data-name="Path 33" d="M453.8,316.592l-16.313-16.313,2.649-2.649L453.8,311.294l13.664-13.664,2.649,2.649Z" transform="translate(7.571 5.277)" fill="#343741"/>
  </g>
</svg>
