<svg xmlns="http://www.w3.org/2000/svg" width="230.153" height="240.913" viewBox="0 0 230.153 240.913">
  <g id="Group_11" data-name="Group 11" opacity="0.1">
    <rect id="Rectangle_21" data-name="Rectangle 21" width="12.865" height="34.305" transform="translate(100.774 116.551)" fill="#343741"/>
    <rect id="Rectangle_22" data-name="Rectangle 22" width="12.865" height="34.305" transform="translate(66.462 116.551)" fill="#343741"/>
    <rect id="Rectangle_23" data-name="Rectangle 23" width="12.865" height="34.305" transform="translate(135.085 116.551)" fill="#343741"/>
    <rect id="Rectangle_24" data-name="Rectangle 24" width="12.865" height="34.305" transform="translate(169.384 116.551)" fill="#343741"/>
    <path id="Path_19" data-name="Path 19" d="M657.387,176.181l92.206-46.1V40.337H736.728v81.8L657.387,161.8,578.06,122.134v-81.8H565.2v89.748Z" transform="translate(-533.034 44.05)" fill="#343741"/>
    <path id="Path_20" data-name="Path 20" d="M569.861,95.828H694.229V63.98l-62.19-31.1-62.178,31.1Zm111.5-12.865H582.726V71.931l49.313-24.663,49.325,24.663Z" transform="translate(-507.683 3.567)" fill="#343741"/>
    <path id="Path_21" data-name="Path 21" d="M568.839,91.628l100.047-50.02,100.04,50.02,5.757-11.508-105.8-52.9-105.8,52.9Z" transform="translate(-544.53 -27.218)" fill="#343741"/>
    <rect id="Rectangle_25" data-name="Rectangle 25" width="98.625" height="12.865" transform="translate(0 228.048)" fill="#343741"/>
  </g>
</svg>
