<svg xmlns="http://www.w3.org/2000/svg" width="211.95" height="240.913" viewBox="0 0 211.95 240.913">
  <g id="Group_38" data-name="Group 38" transform="translate(-428.822 -291.59)" opacity="0.1">
    <path id="Path_31" data-name="Path 31" d="M599.86,372.7l-32.525-32.531L534.8,372.7,502.26,340.174,469.735,372.7l-40.913-40.912,8.625-8.626,32.287,32.287,32.525-32.531L534.8,355.454l32.537-32.531,32.525,32.531,32.287-32.287,8.625,8.626Z" transform="translate(0 159.798)" fill="#343741"/>
    <rect id="Rectangle_38" data-name="Rectangle 38" width="17.946" height="17.946" transform="translate(522.108 304.276) rotate(-44.987)" fill="#343741"/>
    <rect id="Rectangle_39" data-name="Rectangle 39" width="12.2" height="93.531" transform="translate(528.696 381.548)" fill="#343741"/>
    <path id="Path_32" data-name="Path 32" d="M517.8,397.238l-85.65-85.65,8.625-8.625L517.8,379.988l77.025-77.025,8.625,8.625Z" transform="translate(16.993 58.002)" fill="#343741"/>
    <path id="Path_33" data-name="Path 33" d="M490.6,359.368l-53.112-53.112,8.625-8.626L490.6,342.117l44.488-44.487,8.625,8.626Z" transform="translate(44.197 30.804)" fill="#343741"/>
  </g>
</svg>
