<svg xmlns="http://www.w3.org/2000/svg" width="257.596" height="240.914" viewBox="0 0 257.596 240.914">
  <g id="Group_27" data-name="Group 27" transform="translate(-626.529 -158.552)" opacity="0.1">
    <rect id="Rectangle_26" data-name="Rectangle 26" width="257.596" height="13.099" transform="translate(626.529 386.367)" fill="#343741"/>
    <path id="Path_22" data-name="Path 22" d="M871.58,232.86,752.258,173.2,632.937,232.86l-5.855-11.716,125.176-62.591,125.183,62.591Z" transform="translate(3.069 0)" fill="#343741"/>
    <path id="Path_23" data-name="Path 23" d="M685.227,230.7H637.195V182.67h48.032Zm-34.934-13.1h21.835V195.768H650.293Z" transform="translate(59.188 133.836)" fill="#343741"/>
    <path id="Path_24" data-name="Path 24" d="M685.227,220.03H637.195V172h48.032Zm-34.934-13.1h21.835V185.1H650.293Z" transform="translate(59.188 74.647)" fill="#343741"/>
    <path id="Path_25" data-name="Path 25" d="M695.893,230.7H647.861V182.67h48.032ZM660.96,217.6h21.835V195.768H660.96Z" transform="translate(118.377 133.836)" fill="#343741"/>
    <path id="Path_26" data-name="Path 26" d="M695.893,220.03H647.861V172h48.032Zm-34.934-13.1h21.835V185.1H660.96Z" transform="translate(118.377 74.647)" fill="#343741"/>
    <rect id="Rectangle_27" data-name="Rectangle 27" width="13.099" height="144.084" transform="translate(643.989 244.464)" fill="#343741"/>
    <rect id="Rectangle_28" data-name="Rectangle 28" width="13.099" height="144.084" transform="translate(853.566 244.464)" fill="#343741"/>
  </g>
</svg>
