<svg xmlns="http://www.w3.org/2000/svg" width="66.446" height="69.552" viewBox="0 0 66.446 69.552">
  <g id="Group_11" data-name="Group 11" transform="translate(-563.082 -27.218)">
    <rect id="Rectangle_21" data-name="Rectangle 21" width="3.714" height="9.904" transform="translate(596.72 60.867)" fill="#343741"/>
    <rect id="Rectangle_22" data-name="Rectangle 22" width="3.714" height="9.904" transform="translate(606.626 60.867)" fill="#343741"/>
    <rect id="Rectangle_23" data-name="Rectangle 23" width="3.714" height="9.904" transform="translate(586.814 60.867)" fill="#343741"/>
    <rect id="Rectangle_24" data-name="Rectangle 24" width="3.714" height="9.904" transform="translate(576.912 60.867)" fill="#343741"/>
    <path id="Path_19" data-name="Path 19" d="M591.815,79.555,565.2,66.247V40.337h3.714V63.952L591.815,75.4l22.9-11.451V40.337h3.714V66.247Z" transform="translate(1.811 11.244)" fill="#343741"/>
    <path id="Path_20" data-name="Path 20" d="M605.767,51.057H569.861V41.862l17.954-8.977,17.951,8.977Zm-32.191-3.714h28.477V44.158l-14.237-7.12-14.24,7.12Z" transform="translate(5.81 4.857)" fill="#343741"/>
    <path id="Path_21" data-name="Path 21" d="M622.51,45.813,593.626,31.373,564.744,45.813l-1.662-3.322,30.544-15.273,30.546,15.273Z" transform="translate(0)" fill="#343741"/>
    <rect id="Rectangle_25" data-name="Rectangle 25" width="28.473" height="3.714" transform="translate(601.055 93.056)" fill="#343741"/>
  </g>
</svg>
