<svg xmlns="http://www.w3.org/2000/svg" width="69.554" height="69.552" viewBox="0 0 69.554 69.552">
  <g id="Group_17" data-name="Group 17" transform="translate(-359.861 -292.004)">
    <path id="Path_27" data-name="Path 27" d="M403.2,323.833H381.7l-15.915-15.915L381.7,292H403.2l15.915,15.915ZM383.16,320.3h18.578l12.378-12.378-12.378-12.378H383.16l-12.378,12.378Z" transform="translate(4.548)" fill="#343741"/>
    <path id="Path_28" data-name="Path 28" d="M363.655,316.326l-2.5-2.5,8.182-8.18-8.182-8.182,2.5-2.5,10.682,10.682Z" transform="translate(0.994 2.273)" fill="#343741"/>
    <rect id="Rectangle_29" data-name="Rectangle 29" width="3.537" height="38.314" transform="translate(395.227 323.243)" fill="#343741"/>
    <path id="Path_29" data-name="Path 29" d="M385.726,331.032l-11.2-11.2V309.67h3.537v8.7l7.66,7.662,7.664-7.662v-8.7h3.537v10.164Z" transform="translate(11.27 13.572)" fill="#343741"/>
    <path id="Path_30" data-name="Path 30" d="M368.7,338.926l-8.841-8.841V311.67H363.4v16.951l5.3,5.3,5.3-5.3V311.67h3.537v18.415Z" transform="translate(0 15.109)" fill="#343741"/>
    <rect id="Rectangle_30" data-name="Rectangle 30" width="17.683" height="3.537" transform="translate(359.861 325.011)" fill="#343741"/>
    <rect id="Rectangle_31" data-name="Rectangle 31" width="3.537" height="8.253" transform="translate(366.934 351.535)" fill="#343741"/>
    <rect id="Rectangle_32" data-name="Rectangle 32" width="17.683" height="3.537" transform="translate(359.861 358.02)" fill="#343741"/>
    <rect id="Rectangle_33" data-name="Rectangle 33" width="23.578" height="3.537" transform="translate(405.837 358.02)" fill="#343741"/>
    <rect id="Rectangle_34" data-name="Rectangle 34" width="4.718" height="4.716" transform="translate(405.837 347.999)" fill="#343741"/>
    <rect id="Rectangle_35" data-name="Rectangle 35" width="4.714" height="4.716" transform="translate(415.269 347.999)" fill="#343741"/>
    <rect id="Rectangle_36" data-name="Rectangle 36" width="4.714" height="4.716" transform="translate(424.701 347.999)" fill="#343741"/>
    <rect id="Rectangle_37" data-name="Rectangle 37" width="5.202" height="5.202" transform="matrix(0.707, -0.707, 0.707, 0.707, 402.746, 307.939)" fill="#343741"/>
  </g>
</svg>
