<svg xmlns="http://www.w3.org/2000/svg" width="143.408" height="96.256" viewBox="0 0 143.408 96.256">
  <g id="Group_1" data-name="Group 1" transform="translate(-646.284 -181.011)">
    <path id="Path_1" data-name="Path 1" d="M761.473,280.279l-8.7-8.7-8.7,8.7-8.7-8.7-8.7,8.7-8.7-8.7-8.7,8.7-8.7-8.7-8.7,8.7-8.7-8.7-8.7,8.7-8.7-8.7-8.7,8.7-10.826-10.827,2.132-2.13,8.695,8.7,8.7-8.7,8.7,8.7,8.7-8.7,8.7,8.7,8.7-8.7,8.7,8.7,8.7-8.7,8.7,8.7,8.7-8.7,8.7,8.7,8.7-8.7,8.7,8.7,8.7-8.7,8.7,8.7,8.7-8.7,2.13,2.132-10.827,10.825-8.7-8.7Z" transform="translate(0 -3.013)" fill="#353741"/>
    <path id="Path_2" data-name="Path 2" d="M696.84,228.748v-4.021H684.254v32.8H696.84v-4.021h-8.55V228.748Z" transform="translate(-1.325 -1.526)" fill="#353741"/>
    <path id="Path_3" data-name="Path 3" d="M701.184,257.53v-32.8h4.036V253.51h6.489v4.021Z" transform="translate(-1.916 -1.526)" fill="#353741"/>
    <rect id="Rectangle_1" data-name="Rectangle 1" width="4.036" height="32.805" transform="translate(749.099 223.2)" fill="#353741"/>
    <path id="Path_4" data-name="Path 4" d="M762.4,257.53v-32.8h4.04V253.51h6.485v4.021Z" transform="translate(-4.053 -1.526)" fill="#353741"/>
    <path id="Path_5" data-name="Path 5" d="M775.078,251.614v-6.823h4.049v6.2a2.54,2.54,0,0,0,.839,1.99,2.461,2.461,0,0,0,1.59.776,2.361,2.361,0,0,0,1.774-.846,2.824,2.824,0,0,0,.78-1.976v-5.665l-9.03-9.012v-6.334a5.6,5.6,0,0,1,1.586-3.766,6.385,6.385,0,0,1,2.088-1.412,7.391,7.391,0,0,1,2.973-.55,7.225,7.225,0,0,1,3.07.578,6.011,6.011,0,0,1,1.966,1.411,5.044,5.044,0,0,1,1.062,1.848,6.25,6.25,0,0,1,.313,1.891v4.669h-4.026v-4.16a2.542,2.542,0,0,0-.667-1.878,2.411,2.411,0,0,0-1.774-.663,2.489,2.489,0,0,0-1.83.72,2.545,2.545,0,0,0-.715,1.877v4.095l9.008,9.011v8.017a5.681,5.681,0,0,1-.42,2.087,6.613,6.613,0,0,1-1.258,2.018,6.346,6.346,0,0,1-2.051,1.5,6.632,6.632,0,0,1-2.848.577,6.556,6.556,0,0,1-2.86-.577,6.34,6.34,0,0,1-2-1.468,6.087,6.087,0,0,1-1.206-1.989,6.17,6.17,0,0,1-.407-2.144" transform="translate(-4.495 -1.507)" fill="#353741"/>
    <path id="Path_6" data-name="Path 6" d="M734.463,251.614v-6.823h4.049v6.2a2.544,2.544,0,0,0,.837,1.99,2.46,2.46,0,0,0,1.589.776,2.358,2.358,0,0,0,1.774-.846,2.825,2.825,0,0,0,.78-1.976v-5.665l-9.028-9.012v-6.334a5.606,5.606,0,0,1,1.584-3.766,6.4,6.4,0,0,1,2.09-1.412,7.384,7.384,0,0,1,2.972-.55,7.21,7.21,0,0,1,3.068.578,6,6,0,0,1,1.968,1.411,5.072,5.072,0,0,1,1.062,1.848,6.3,6.3,0,0,1,.311,1.891v4.669h-4.026v-4.16a2.54,2.54,0,0,0-.665-1.878,2.411,2.411,0,0,0-1.774-.663,2.494,2.494,0,0,0-1.832.72,2.544,2.544,0,0,0-.713,1.877v4.095l9.008,9.011v8.017a5.719,5.719,0,0,1-.42,2.087,6.649,6.649,0,0,1-1.257,2.018,6.334,6.334,0,0,1-2.053,1.5,7.344,7.344,0,0,1-5.708,0,6.384,6.384,0,0,1-2-1.468,6.352,6.352,0,0,1-1.612-4.133" transform="translate(-3.078 -1.507)" fill="#353741"/>
    <path id="Path_7" data-name="Path 7" d="M718.888,224.731l6.206,6.2v-6.209h4.035v32.8h-4.035v-20.89l-6.2-6.186V257.53h-4.036v-32.8Z" transform="translate(-2.394 -1.526)" fill="#353741"/>
    <path id="Path_8" data-name="Path 8" d="M673.93,224.731l-6.206,6.206v-6.211l-4.026.006-6.206,6.2v-6.209h-4.034v32.8h4.034v-20.89l6.2-6.186V257.53h4.035V236.641l6.2-6.188V257.53h4.034v-32.8Z" transform="translate(-0.25 -1.526)" fill="#353741"/>
    <rect id="Rectangle_2" data-name="Rectangle 2" width="4.741" height="4.741" transform="translate(688.41 239.189) rotate(-45)" fill="#353741"/>
    <path id="Path_9" data-name="Path 9" d="M736.417,197.725l-2.132-2.131-12.791,12.791v-8.607l8.486-8.489-2.13-2.131-7.862,7.865-7.865-7.864-2.132,2.131,8.488,8.488v8.61L705.688,195.6l-2.132,2.131,14.923,14.923v4.729h3.014v-4.73Z" transform="translate(-1.999 -0.284)" fill="#353741"/>
    <rect id="Rectangle_3" data-name="Rectangle 3" width="4.742" height="4.742" transform="translate(714.635 184.363) rotate(-44.984)" fill="#353741"/>
  </g>
</svg>
