<svg xmlns="http://www.w3.org/2000/svg" width="74.368" height="69.552" viewBox="0 0 74.368 69.552">
  <g id="Group_15" data-name="Group 15" transform="translate(-626.529 -158.552)">
    <rect id="Rectangle_26" data-name="Rectangle 26" width="74.368" height="3.782" transform="translate(626.529 224.323)" fill="#343741"/>
    <path id="Path_22" data-name="Path 22" d="M697.669,180.005l-34.448-17.223-34.448,17.223-1.69-3.383,36.139-18.07,36.141,18.07Z" transform="translate(0.493 0)" fill="#343741"/>
    <path id="Path_23" data-name="Path 23" d="M651.062,196.537H637.195V182.67h13.867Zm-10.086-3.782h6.3v-6.3h-6.3Z" transform="translate(9.501 21.484)" fill="#343741"/>
    <path id="Path_24" data-name="Path 24" d="M651.062,185.869H637.195V172h13.867Zm-10.086-3.782h6.3v-6.3h-6.3Z" transform="translate(9.501 11.983)" fill="#343741"/>
    <path id="Path_25" data-name="Path 25" d="M661.728,196.537H647.861V182.67h13.867Zm-10.085-3.782h6.3v-6.3h-6.3Z" transform="translate(19.002 21.484)" fill="#343741"/>
    <path id="Path_26" data-name="Path 26" d="M661.728,185.869H647.861V172h13.867Zm-10.085-3.782h6.3v-6.3h-6.3Z" transform="translate(19.002 11.983)" fill="#343741"/>
    <rect id="Rectangle_27" data-name="Rectangle 27" width="3.782" height="41.597" transform="translate(631.57 183.355)" fill="#343741"/>
    <rect id="Rectangle_28" data-name="Rectangle 28" width="3.782" height="41.597" transform="translate(692.075 183.355)" fill="#343741"/>
  </g>
</svg>
