<svg xmlns="http://www.w3.org/2000/svg" width="240.006" height="240" viewBox="0 0 240.006 240">
  <g id="Group_34" data-name="Group 34" transform="translate(-359.861 -292.004)" opacity="0.1">
    <path id="Path_27" data-name="Path 27" d="M494.906,401.835H420.7L365.781,346.92,420.7,292h74.209l54.916,54.916Zm-69.157-12.2h64.1l42.712-42.712-42.712-42.712h-64.1L383.037,346.92Z" transform="translate(30.202 0)" fill="#343741"/>
    <path id="Path_28" data-name="Path 28" d="M369.782,368.678l-8.628-8.628,28.233-28.227-28.233-28.233,8.628-8.628,36.861,36.861Z" transform="translate(6.599 15.095)" fill="#343741"/>
    <rect id="Rectangle_29" data-name="Rectangle 29" width="12.203" height="132.206" transform="translate(481.896 399.798)" fill="#343741"/>
    <path id="Path_29" data-name="Path 29" d="M413.165,383.385l-38.636-38.642V309.67h12.2V339.69l26.433,26.439L439.61,339.69V309.67h12.2v35.073Z" transform="translate(74.834 90.126)" fill="#343741"/>
    <path id="Path_30" data-name="Path 30" d="M390.37,405.722l-30.509-30.509V311.67h12.2v58.491l18.305,18.305,18.305-18.305V311.67h12.2v63.543Z" transform="translate(0.002 100.33)" fill="#343741"/>
    <rect id="Rectangle_30" data-name="Rectangle 30" width="61.017" height="12.203" transform="translate(359.861 405.899)" fill="#343741"/>
    <rect id="Rectangle_31" data-name="Rectangle 31" width="12.203" height="28.477" transform="translate(384.268 497.425)" fill="#343741"/>
    <rect id="Rectangle_32" data-name="Rectangle 32" width="61.017" height="12.203" transform="translate(359.861 519.8)" fill="#343741"/>
    <rect id="Rectangle_33" data-name="Rectangle 33" width="81.36" height="12.203" transform="translate(518.506 519.8)" fill="#343741"/>
    <rect id="Rectangle_34" data-name="Rectangle 34" width="16.279" height="16.273" transform="translate(518.506 485.222)" fill="#343741"/>
    <rect id="Rectangle_35" data-name="Rectangle 35" width="16.267" height="16.273" transform="translate(551.053 485.222)" fill="#343741"/>
    <rect id="Rectangle_36" data-name="Rectangle 36" width="16.267" height="16.273" transform="translate(583.6 485.222)" fill="#343741"/>
    <rect id="Rectangle_37" data-name="Rectangle 37" width="17.949" height="17.949" transform="matrix(0.707, -0.707, 0.707, 0.707, 507.843, 346.99)" fill="#343741"/>
  </g>
</svg>
