<svg xmlns="http://www.w3.org/2000/svg" width="8.838" height="8.838" viewBox="0 0 8.838 8.838">
  <g id="Group_2" data-name="Group 2" transform="translate(-35.861 -26.337)">
    <path id="Path_10" data-name="Path 10" d="M46.014,39.015h-.335L43.154,36.49v-.335l2.525-2.525h.335l2.525,2.525v.335Zm-2.358-2.692,2.191,2.19,2.19-2.19-2.19-2.19Z" transform="translate(-5.567 -5.566)" fill="#66676f"/>
    <rect id="Rectangle_6" data-name="Rectangle 6" width="1.894" height="0.473" transform="translate(35.861 30.519)" fill="#66676f"/>
    <rect id="Rectangle_7" data-name="Rectangle 7" width="1.894" height="0.473" transform="translate(42.805 30.519)" fill="#66676f"/>
    <rect id="Rectangle_8" data-name="Rectangle 8" width="0.473" height="1.894" transform="translate(40.044 33.281)" fill="#66676f"/>
    <rect id="Rectangle_9" data-name="Rectangle 9" width="0.473" height="1.894" transform="translate(40.044 26.337)" fill="#66676f"/>
    <rect id="Rectangle_10" data-name="Rectangle 10" width="3.571" height="0.473" transform="matrix(0.707, -0.707, 0.707, 0.707, 36.483, 34.218)" fill="#66676f"/>
    <rect id="Rectangle_11" data-name="Rectangle 11" width="3.571" height="0.473" transform="matrix(0.707, -0.707, 0.707, 0.707, 41.218, 29.484)" fill="#66676f"/>
    <rect id="Rectangle_12" data-name="Rectangle 12" width="0.473" height="3.571" transform="translate(41.218 32.028) rotate(-44.997)" fill="#66676f"/>
    <rect id="Rectangle_13" data-name="Rectangle 13" width="0.473" height="3.571" transform="translate(36.483 27.293) rotate(-44.997)" fill="#66676f"/>
  </g>
</svg>
