<svg xmlns="http://www.w3.org/2000/svg" width="12" height="8.805" viewBox="0 0 12 8.805">
  <g id="Group_4" data-name="Group 4" transform="translate(-103.822 -32.923)">
    <path id="Path_11" data-name="Path 11" d="M110.974,52.2l-2.3-2.3-2.3,2.3-2.546-2.547.488-.488,2.058,2.058,2.3-2.3,2.3,2.3,2.3-2.3,2.546,2.547-.488.488L113.276,49.9Z" transform="translate(0 -10.474)" fill="#66676f"/>
    <path id="Path_12" data-name="Path 12" d="M110.974,44.2l-2.3-2.3-2.3,2.3-2.546-2.547.488-.488,2.058,2.058,2.3-2.3,2.3,2.3,2.3-2.3,2.546,2.547-.488.488L113.276,41.9Z" transform="translate(0 -5.237)" fill="#66676f"/>
    <path id="Path_13" data-name="Path 13" d="M110.974,36.2l-2.3-2.3-2.3,2.3-2.546-2.547.488-.488,2.058,2.058,2.3-2.3,2.3,2.3,2.3-2.3,2.546,2.547-.488.488L113.276,33.9Z" fill="#66676f"/>
  </g>
</svg>
